<svg width="17" height="17" viewBox="0 0 17 17" fill="none" xmlns="http://www.w3.org/2000/svg">
<g clip-path="url(#clip0_613_912)">
<path d="M12.7062 12.7062C11.4954 13.6292 10.021 14.1405 8.4987 14.1654C3.54036 14.1654 0.707031 8.49872 0.707031 8.49872C1.58812 6.85673 2.81017 5.42215 4.2912 4.29122M7.0112 3.00205C7.49877 2.88792 7.99795 2.83087 8.4987 2.83205C13.457 2.83205 16.2904 8.49872 16.2904 8.49872C15.8604 9.3031 15.3476 10.0604 14.7604 10.7583M10.0004 10.0004C9.80582 10.2092 9.57122 10.3766 9.31056 10.4928C9.04989 10.6089 8.7685 10.6714 8.48318 10.6764C8.19785 10.6814 7.91444 10.6289 7.64984 10.5221C7.38524 10.4152 7.14488 10.2561 6.94309 10.0543C6.7413 9.85254 6.58223 9.61218 6.47535 9.34758C6.36847 9.08298 6.31599 8.79956 6.32102 8.51424C6.32606 8.22891 6.38851 7.94752 6.50465 7.68686C6.6208 7.42619 6.78825 7.19159 6.99703 6.99705" stroke="#585858" stroke-linecap="round" stroke-linejoin="round"/>
<path d="M0.707031 0.707031L16.2904 16.2904" stroke="#585858" stroke-linecap="round" stroke-linejoin="round"/>
</g>
<defs>
<clipPath id="clip0_613_912">
<rect width="17" height="17" fill="white"/>
</clipPath>
</defs>
</svg>
