<svg width="569" height="478" viewBox="0 0 569 478" fill="none" xmlns="http://www.w3.org/2000/svg">
<path d="M244.824 11.8686C244.793 11.8136 244.766 11.7562 244.742 11.6981L244.78 11.6602C244.8 11.7284 244.815 11.7979 244.824 11.8686Z" fill="#3FBDF1"/>
<path d="M244.986 12.6277C244.927 12.4212 244.885 12.2096 244.859 11.9961C244.962 12.19 245.006 12.4092 244.986 12.6277Z" fill="#3FBDF1"/>
<path d="M273.351 230.119C273.194 230.479 273.061 230.832 272.903 231.205C261.243 259.597 253.108 293.566 251.219 334.218C218.848 254.923 165.146 216.538 117.312 198.107C118.172 171.61 121.854 125.533 136.893 97.2227C136.893 97.2227 162.361 103.179 194.416 128.293C219.707 148.107 249.135 179.885 273.351 230.119Z" fill="#58419F"/>
<path d="M278.132 229.692L277.039 229.445C277.197 229.066 277.336 228.706 277.488 228.34C277.702 228.782 277.923 229.281 278.132 229.692Z" fill="#3FBDF1"/>
<path d="M278.132 229.692L277.039 229.445C277.197 229.066 277.336 228.706 277.488 228.34C277.702 228.782 277.923 229.281 278.132 229.692Z" fill="#3FBDF1"/>
<path d="M257.2 411.7C256.89 411.7 256.568 411.7 256.265 411.7C135.484 411.7 35.4327 320.169 17.5068 200.588C16.3004 190.381 16.1172 184.286 16.1172 184.286C16.1172 184.286 59.7001 179.865 110.231 199.755C155.045 217.396 205.336 254.126 235.648 329.998V330.055C235.831 330.509 236.015 330.958 236.179 331.432C245.236 354.391 252.45 380.914 257.162 411.529C257.181 411.586 257.2 411.643 257.2 411.7Z" fill="#58419F"/>
<path d="M538.359 187.949C526.819 323.391 416.946 429.739 282.977 430.282C283.052 424.13 284.979 354.606 326.945 291.575C345.702 263.132 370.902 239.512 400.498 222.632C401.339 222.146 402.153 221.685 403.025 221.224C404.055 220.636 405.109 220.074 406.183 219.512C406.455 219.354 406.745 219.209 407.042 219.051C408.072 218.508 409.101 217.964 410.156 217.44C410.699 217.162 411.243 216.878 411.811 216.619C412.935 216.038 414.085 215.47 415.235 214.926C416.384 214.383 417.395 213.903 418.487 213.404L418.873 213.221C419.694 212.836 420.509 212.476 421.342 212.116C422.378 211.629 423.408 211.187 424.456 210.745C427.513 209.418 430.665 208.155 433.88 206.955L434.992 206.532C436.35 206.008 437.714 205.509 439.098 205.022C466.89 195.169 499.703 188.909 538.359 187.949Z" fill="#58419F"/>
<path d="M356.024 125.115C328.656 145.845 297.826 178.519 277.487 228.336C253.289 177.111 223.943 144.695 198.703 124.489C213.61 96.6974 247.396 40.2103 278.131 13.7891C278.131 13.7891 324.664 59.7531 356.024 125.115Z" fill="#58419F"/>
<path d="M436.336 199.738C434.984 200.212 433.645 200.704 432.306 201.216L431.22 201.633C428.062 202.814 424.979 204.058 421.979 205.36C420.949 205.795 419.939 206.225 418.928 206.699C418.107 207.059 417.305 207.412 416.503 207.785L416.117 207.962C415.05 208.455 413.982 208.947 412.959 209.465C411.936 209.983 410.704 210.545 409.593 211.12C409.043 211.373 408.506 211.651 407.976 211.929C406.94 212.44 405.929 212.971 404.919 213.508C404.634 213.666 404.344 213.798 404.078 213.956C403.049 214.512 402.019 215.061 401.002 215.636C400.162 216.091 399.36 216.539 398.539 217.013C369.495 233.57 344.764 256.739 326.35 284.642C285.192 346.467 283.297 414.671 283.222 420.703L283.127 420.526C278.2 388.515 270.665 360.786 261.19 336.784L261.935 334.339L260.641 335.344C260.641 335.344 260.641 335.344 260.641 335.306C262.491 294.641 270.45 260.64 281.87 232.261L282.937 232.495L282.306 231.174C302.259 182.305 332.502 150.256 359.365 129.923C391.004 105.985 417.974 98.2344 417.974 98.2344C432.363 116.021 435.648 170.43 436.336 199.738Z" fill="#58419F"/>
<path d="M254.133 341.302V341.238C254.133 341.238 254.133 341.276 254.133 341.302Z" stroke="#CCDDE2" stroke-width="2.50759" stroke-miterlimit="10"/>
<path d="M277.479 228.957C277.315 229.342 277.17 229.721 277.005 230.125C264.695 260.734 256.111 297.401 254.109 341.255C219.937 255.713 163.235 214.297 112.711 194.419C113.614 165.831 117.505 116.128 133.397 85.582C133.397 85.582 160.286 92.0058 194.135 119.103C220.84 140.477 251.911 174.762 277.479 228.957Z" stroke="#CCDDE2" stroke-width="2.50759" stroke-miterlimit="10"/>
<path d="M278.156 230.385L277 230.126C277.164 229.721 277.31 229.342 277.474 228.957C277.701 229.424 277.916 229.911 278.156 230.385Z" stroke="#CCDDE2" stroke-width="2.50759" stroke-miterlimit="10"/>
<path d="M254.133 341.302V341.238C254.133 341.238 254.133 341.276 254.133 341.302Z" stroke="#CCDDE2" stroke-width="2.50759" stroke-miterlimit="10"/>
<path d="M278.156 230.385L277 230.126C277.164 229.721 277.31 229.342 277.474 228.957C277.701 229.424 277.916 229.911 278.156 230.385Z" stroke="#CCDDE2" stroke-width="2.50759" stroke-miterlimit="10"/>
<path opacity="0.9" d="M69.1638 332.323C66.9341 329.6 64.7423 326.815 62.6327 323.985C34.2337 286.204 15.5264 242.038 8.14781 195.353C6.30975 183.914 6.59399 176.978 6.59399 176.978C6.59399 176.978 55.7036 172.001 112.709 194.418C163.239 214.302 219.922 255.686 254.1 341.254V341.323C254.308 341.835 254.523 342.347 254.694 342.877C264.926 368.774 273.049 398.663 278.367 433.201C278.367 433.264 278.367 433.327 278.367 433.397C278.007 433.397 277.666 433.397 277.306 433.397C206.835 433.296 142.566 405.188 94.107 359.268C89.0539 354.487 84.1335 349.49 79.4341 344.317" stroke="#CCDDE2" stroke-width="2.50759" stroke-miterlimit="10"/>
<path d="M254.133 341.302V341.238C254.133 341.238 254.133 341.276 254.133 341.302Z" stroke="#CCDDE2" stroke-width="2.50759" stroke-miterlimit="10"/>
<path opacity="0.9" d="M548.647 177C536.438 320.286 420.217 432.774 278.484 433.349C278.566 426.843 280.607 353.296 324.992 286.614C344.842 256.527 371.504 231.542 402.815 213.685C403.706 213.174 404.571 212.687 405.474 212.201C406.567 211.569 407.679 210.988 408.791 210.388C409.075 210.218 409.384 210.072 409.694 209.902C410.787 209.327 411.879 208.752 412.991 208.203C413.566 207.9 414.141 207.571 414.741 207.325C415.934 206.693 417.147 206.118 418.366 205.544C419.585 204.969 420.646 204.457 421.802 203.927L422.213 203.731C423.078 203.327 423.943 202.948 424.828 202.562C425.921 202.051 427.007 201.583 428.119 201.116C431.353 199.714 434.688 198.374 438.086 197.099L439.261 196.65C440.701 196.101 442.141 195.564 443.606 195.058C473.047 184.611 507.761 178.017 548.647 177Z" stroke="#CCDDE2" stroke-width="2.50759" stroke-miterlimit="10"/>
<path d="M360.564 119.768C331.616 141.692 298.998 176.255 277.485 228.959C251.916 174.765 220.846 140.48 194.141 119.105C209.931 89.6898 245.657 29.9498 278.148 2C278.167 2 327.352 50.6232 360.564 119.768Z" stroke="#CCDDE2" stroke-width="2.50759" stroke-miterlimit="10"/>
<path d="M87.9607 276.297C87.967 276.255 87.967 276.212 87.9607 276.17C87.9607 276.126 87.9607 276.082 87.9607 276C87.9506 275.929 87.9506 275.857 87.9607 275.785C87.9784 275.937 88.0081 276.086 88.0491 276.234C88.0397 276.25 88.027 276.264 88.0119 276.275C87.9961 276.285 87.979 276.293 87.9607 276.297Z" fill="white"/>
<path d="M88.1997 317.134C87.2251 320.278 85.9801 323.332 84.4794 326.261C84.0499 327.089 83.6266 327.897 83.1592 328.706C81.5637 331.701 79.6057 334.488 77.3293 337.005C76.925 336.873 76.5208 336.702 76.1607 336.557C76.0786 336.557 76.0091 336.494 75.946 336.468C68.5874 333.26 63.0606 327.24 61.4184 320.475C59.953 314.519 61.2731 308.076 58.4434 302.486C54.9568 295.602 45.558 291.294 44.3832 283.512C43.3221 276.236 49.8721 269.559 48.8046 262.434C47.5919 254.368 37.6816 249.587 35.8498 241.717C34.6813 236.828 35.7235 231.187 35.3003 226.147C34.8114 220.513 33.8564 214.929 32.4453 209.453C33.1275 209.409 33.8096 209.39 34.4918 209.364C48.3878 209.131 62.1384 216.944 66.6483 227.953C70.2865 236.847 68.4358 247.117 73.2615 255.455C73.554 255.994 73.8805 256.513 74.2406 257.009C74.8735 257.888 75.555 258.731 76.2807 259.535L77.8156 261.133C78.0683 261.386 78.3462 261.62 78.5988 261.898C78.8515 262.175 79.1294 262.409 79.3884 262.687C81.7886 264.98 84.2393 267.298 85.8311 270.046C85.9782 270.284 86.1065 270.533 86.2164 270.791C86.3654 271.04 86.4917 271.303 86.5953 271.574C86.7324 271.851 86.8549 272.136 86.9617 272.427C87.088 272.743 87.1954 273.059 87.2964 273.406C87.448 273.918 87.5996 274.404 87.7007 274.916C87.7007 275.042 87.7007 275.149 87.7449 275.257C87.7891 275.364 87.7449 275.339 87.7449 275.383C87.7544 275.425 87.7544 275.468 87.7449 275.509C87.7538 275.582 87.7689 275.654 87.7891 275.724V275.768C87.7916 275.847 87.8043 275.926 87.827 276.002C87.827 276.084 87.827 276.128 87.827 276.172C87.8333 276.214 87.8333 276.257 87.827 276.299V276.343L86.1911 300.08C87.2396 305.821 89.8609 311.544 88.1997 317.134Z" fill="white"/>
<path d="M100.547 259.515C101.614 254.367 101.697 248.966 104.122 244.052C108.632 234.995 121.808 228.419 135.622 227.996H135.874C137.138 227.996 138.401 227.996 139.664 228.059C138.235 232.768 137.26 237.603 136.752 242.498C136.285 246.857 137.384 251.733 136.178 255.921C134.238 262.723 123.924 266.854 122.673 273.809C121.561 279.973 128.389 285.74 127.265 292.012C126.052 298.733 116.268 302.453 112.655 308.435C109.737 313.267 111.102 318.813 109.592 323.941C107.823 329.79 102.012 335.001 94.3633 337.743C93.8706 337.913 93.4285 338.084 92.9358 338.235C92.6768 338.298 92.38 338.406 92.1273 338.469C92.0389 338.406 91.9568 338.317 91.8494 338.235C89.3797 336.132 86.6131 332.582 84.3203 328.761L84.4909 326.335C85.9916 323.406 87.2366 320.352 88.2112 317.208C89.8724 311.618 87.2511 305.896 86.3163 300.154L87.9522 276.417L88.4638 275.994C88.6508 275.856 88.8277 275.707 88.9944 275.546C91.5209 273.505 94.2496 271.547 96.2014 269.229C98.6268 266.381 99.7575 263.254 100.478 259.976" fill="white"/>
<path d="M100.492 259.857C100.492 259.749 100.536 259.648 100.555 259.516L100.492 259.857Z" fill="white"/>
<path d="M100.552 259.499C100.552 259.632 100.508 259.733 100.489 259.84C99.7689 263.119 98.6382 266.245 96.2128 269.094C94.261 271.412 91.5387 273.37 89.0058 275.41C88.8397 275.571 88.6622 275.721 88.4752 275.859L87.9636 276.301C87.9725 276.274 87.9725 276.245 87.9636 276.219C87.944 276.145 87.9213 276.074 87.8941 276.004C87.884 275.933 87.884 275.86 87.8941 275.789V275.745C87.8739 275.674 87.8594 275.603 87.8499 275.53C87.8594 275.488 87.8594 275.445 87.8499 275.404C87.8594 275.384 87.8644 275.362 87.8644 275.341C87.8644 275.319 87.8594 275.297 87.8499 275.278C87.8341 275.162 87.8108 275.048 87.7804 274.936C87.6794 274.425 87.5278 273.938 87.3762 273.427C87.2751 273.105 87.1678 272.764 87.0414 272.448C86.9347 272.157 86.8121 271.872 86.6751 271.595C86.5854 271.318 86.4578 271.054 86.2961 270.812C86.1868 270.554 86.058 270.305 85.9108 270.067C84.3191 267.319 81.8683 265.013 79.4681 262.708C79.2092 262.43 78.9376 262.152 78.6786 261.918C78.4196 261.685 78.148 261.407 77.8954 261.154L76.3605 259.556C75.6347 258.752 74.9538 257.908 74.3203 257.03C74.3203 257.03 75.7352 232.44 88.3047 224.999C100.173 217.912 100.552 255.349 100.552 259.499Z" fill="white"/>
<path d="M100.492 259.857C100.492 259.749 100.536 259.648 100.555 259.516L100.492 259.857Z" fill="white"/>
<path d="M87.9373 276.219V276.32C87.9436 276.279 87.9436 276.236 87.9373 276.194C87.9373 276.15 87.9373 276.105 87.9373 276.023C87.9272 275.952 87.9272 275.88 87.9373 275.809C87.9278 275.946 87.9278 276.083 87.9373 276.219Z" fill="white"/>
<path d="M130.49 235.867C107.834 260.248 97.1844 311.663 93.0346 338.192C92.6935 340.434 92.4029 342.481 92.125 344.325" fill="white"/>
<path d="M132.572 359.266L122.15 420.762C121.904 422.442 121.071 423.98 119.8 425.107C118.529 426.232 116.9 426.872 115.202 426.914H60.7177C59.006 426.87 57.3656 426.217 56.0916 425.072C54.8182 423.927 53.9946 422.365 53.7697 420.667L44.1562 359.266H132.572Z" fill="white"/>
<path d="M142.468 352.405C142.373 354.226 141.594 355.944 140.287 357.215C138.981 358.487 137.242 359.219 135.419 359.264H41.4506C39.6454 359.221 37.9223 358.504 36.6192 357.254C35.3155 356.005 34.5273 354.313 34.4079 352.512C34.0099 348.128 37.2755 344.301 41.4506 344.301H135.419C139.55 344.332 142.803 348.027 142.468 352.405Z" fill="white"/>
<path d="M87.9992 276.342C87.9979 276.204 87.9745 276.068 87.9297 275.938L87.9992 276.342Z" fill="white"/>
<path d="M41.4453 218.484C63.1925 246.731 73.425 306.282 77.4485 337.023C77.7896 339.689 78.0801 342.133 78.3391 344.319" fill="white"/>
<path d="M89.9197 248.5C87.1974 256.882 87.0647 265.346 87.3932 270.708C87.4804 272.439 87.6635 274.164 87.9427 275.875" fill="white"/>
<path d="M87.9607 276.297C87.967 276.255 87.967 276.212 87.9607 276.17C87.9607 276.126 87.9607 276.082 87.9607 276C87.9506 275.929 87.9506 275.857 87.9607 275.785C87.9784 275.937 88.0081 276.086 88.0491 276.234C88.0397 276.25 88.027 276.264 88.0119 276.275C87.9961 276.285 87.979 276.293 87.9607 276.297Z" stroke="#CCDDE2" stroke-width="2.50759" stroke-miterlimit="10"/>
<path d="M88.1997 317.134C87.2251 320.278 85.9801 323.332 84.4794 326.261C84.0499 327.089 83.6266 327.897 83.1592 328.706C81.5637 331.701 79.6057 334.488 77.3293 337.005C76.925 336.873 76.5208 336.702 76.1607 336.557C76.0786 336.557 76.0091 336.494 75.946 336.468C68.5874 333.26 63.0606 327.24 61.4184 320.475C59.953 314.519 61.2731 308.076 58.4434 302.486C54.9568 295.602 45.558 291.294 44.3832 283.512C43.3221 276.236 49.8721 269.559 48.8046 262.434C47.5919 254.368 37.6816 249.587 35.8498 241.717C34.6813 236.828 35.7235 231.187 35.3003 226.147C34.8114 220.513 33.8564 214.929 32.4453 209.453C33.1275 209.409 33.8096 209.39 34.4918 209.364C48.3878 209.131 62.1384 216.944 66.6483 227.953C70.2865 236.847 68.4358 247.117 73.2615 255.455C73.554 255.994 73.8805 256.513 74.2406 257.009C74.8735 257.888 75.555 258.731 76.2807 259.535L77.8156 261.133C78.0683 261.386 78.3462 261.62 78.5988 261.898C78.8515 262.175 79.1294 262.409 79.3884 262.687C81.7886 264.98 84.2393 267.298 85.8311 270.046C85.9782 270.284 86.1065 270.533 86.2164 270.791C86.3654 271.04 86.4917 271.303 86.5953 271.574C86.7324 271.851 86.8549 272.136 86.9617 272.427C87.088 272.743 87.1954 273.059 87.2964 273.406C87.448 273.918 87.5996 274.404 87.7007 274.916C87.7007 275.042 87.7007 275.149 87.7449 275.257C87.7891 275.364 87.7449 275.339 87.7449 275.383C87.7544 275.425 87.7544 275.468 87.7449 275.509C87.7538 275.582 87.7689 275.654 87.7891 275.724V275.768C87.7916 275.847 87.8043 275.926 87.827 276.002C87.827 276.084 87.827 276.128 87.827 276.172C87.8333 276.214 87.8333 276.257 87.827 276.299V276.343L86.1911 300.08C87.2396 305.821 89.8609 311.544 88.1997 317.134Z" stroke="#CCDDE2" stroke-width="2.50759" stroke-miterlimit="10"/>
<path d="M100.547 259.515C101.614 254.367 101.697 248.966 104.122 244.052C108.632 234.995 121.808 228.419 135.622 227.996H135.874C137.138 227.996 138.401 227.996 139.664 228.059C138.235 232.768 137.26 237.603 136.752 242.498C136.285 246.857 137.384 251.733 136.178 255.921C134.238 262.723 123.924 266.854 122.673 273.809C121.561 279.973 128.389 285.74 127.265 292.012C126.052 298.733 116.268 302.453 112.655 308.435C109.737 313.267 111.102 318.813 109.592 323.941C107.823 329.79 102.012 335.001 94.3633 337.743C93.8706 337.913 93.4285 338.084 92.9358 338.235C92.6768 338.298 92.38 338.406 92.1273 338.469C92.0389 338.406 91.9568 338.317 91.8494 338.235C89.3797 336.132 86.6131 332.582 84.3203 328.761L84.4909 326.335C85.9916 323.406 87.2366 320.352 88.2112 317.208C89.8724 311.618 87.2511 305.896 86.3163 300.154L87.9522 276.417L88.4638 275.994C88.6508 275.856 88.8277 275.707 88.9944 275.546C91.5209 273.505 94.2496 271.547 96.2014 269.229C98.6268 266.381 99.7575 263.254 100.478 259.976" stroke="#CCDDE2" stroke-width="2.50759" stroke-miterlimit="10"/>
<path d="M100.492 259.857C100.492 259.749 100.536 259.648 100.555 259.516" stroke="#CCDDE2" stroke-width="2.50759" stroke-miterlimit="10"/>
<path d="M100.552 259.499C100.552 259.632 100.508 259.733 100.489 259.84C99.7689 263.119 98.6382 266.245 96.2128 269.094C94.261 271.412 91.5387 273.37 89.0058 275.41C88.8397 275.571 88.6622 275.721 88.4752 275.859L87.9636 276.301C87.9725 276.274 87.9725 276.245 87.9636 276.219C87.944 276.145 87.9213 276.074 87.8941 276.004C87.884 275.933 87.884 275.86 87.8941 275.789V275.745C87.8739 275.674 87.8594 275.603 87.8499 275.53C87.8594 275.488 87.8594 275.445 87.8499 275.404C87.8594 275.384 87.8644 275.362 87.8644 275.341C87.8644 275.319 87.8594 275.297 87.8499 275.278C87.8341 275.162 87.8108 275.048 87.7804 274.936C87.6794 274.425 87.5278 273.938 87.3762 273.427C87.2751 273.105 87.1678 272.764 87.0414 272.448C86.9347 272.157 86.8121 271.872 86.6751 271.595C86.5854 271.318 86.4578 271.054 86.2961 270.812C86.1868 270.554 86.058 270.305 85.9108 270.067C84.3191 267.319 81.8683 265.013 79.4681 262.708C79.2092 262.43 78.9376 262.152 78.6786 261.918C78.4196 261.685 78.148 261.407 77.8954 261.154L76.3605 259.556C75.6347 258.752 74.9538 257.908 74.3203 257.03C74.3203 257.03 75.7352 232.44 88.3047 224.999C100.173 217.912 100.552 255.349 100.552 259.499Z" stroke="#CCDDE2" stroke-width="2.50759" stroke-miterlimit="10"/>
<path d="M100.492 259.857C100.492 259.749 100.536 259.648 100.555 259.516" stroke="#CCDDE2" stroke-width="2.50759" stroke-miterlimit="10"/>
<path d="M87.9373 276.219V276.32C87.9436 276.279 87.9436 276.236 87.9373 276.194C87.9373 276.15 87.9373 276.105 87.9373 276.023C87.9272 275.952 87.9272 275.88 87.9373 275.809C87.9278 275.946 87.9278 276.083 87.9373 276.219Z" stroke="#CCDDE2" stroke-width="2.50759" stroke-miterlimit="10"/>
<path d="M130.49 235.867C107.834 260.248 97.1844 311.663 93.0346 338.192C92.6935 340.434 92.4029 342.481 92.125 344.325" stroke="#CCDDE2" stroke-width="2.50759" stroke-miterlimit="10"/>
<path d="M132.572 359.266L122.15 420.762C121.904 422.442 121.071 423.98 119.8 425.107C118.529 426.232 116.9 426.872 115.202 426.914H60.7177C59.006 426.87 57.3656 426.217 56.0916 425.072C54.8182 423.927 53.9946 422.365 53.7697 420.667L44.1562 359.266H132.572Z" stroke="#CCDDE2" stroke-width="2.50759" stroke-miterlimit="10"/>
<path d="M142.468 352.405C142.373 354.226 141.594 355.944 140.287 357.215C138.981 358.487 137.242 359.219 135.419 359.264H41.4506C39.6454 359.221 37.9223 358.504 36.6192 357.254C35.3155 356.005 34.5273 354.313 34.4079 352.512C34.0099 348.128 37.2755 344.301 41.4506 344.301H135.419C139.55 344.332 142.803 348.027 142.468 352.405Z" stroke="#CCDDE2" stroke-width="2.50759" stroke-miterlimit="10"/>
<path d="M87.9992 276.342C87.9979 276.204 87.9745 276.068 87.9297 275.938L87.9992 276.342Z" stroke="#CCDDE2" stroke-width="2.50759" stroke-miterlimit="10"/>
<path d="M41.4453 218.484C63.1925 246.731 73.425 306.282 77.4485 337.023C77.7896 339.689 78.0801 342.133 78.3391 344.319" stroke="#CCDDE2" stroke-width="2.50759" stroke-miterlimit="10"/>
<path d="M89.9197 248.5C87.1974 256.882 87.0647 265.346 87.3932 270.708C87.4804 272.439 87.6635 274.164 87.9427 275.875" stroke="#CCDDE2" stroke-width="2.50759" stroke-miterlimit="10"/>
<path d="M443.611 195.058C442.145 195.563 440.705 196.1 439.265 196.65L438.09 197.098C434.692 198.361 431.357 199.713 428.123 201.115C427.011 201.583 425.925 202.05 424.832 202.562C423.948 202.947 423.082 203.326 422.217 203.73L421.806 203.926C420.651 204.457 419.501 204.987 418.37 205.543C417.24 206.099 415.939 206.711 414.745 207.324C414.113 207.602 413.57 207.899 412.995 208.202C411.883 208.752 410.791 209.326 409.698 209.901C409.389 210.072 409.066 210.217 408.795 210.388C407.683 210.988 406.571 211.581 405.479 212.2C404.576 212.687 403.71 213.173 402.82 213.685C371.508 231.542 344.846 256.527 324.996 286.613C280.611 353.295 278.571 426.836 278.489 433.348L278.381 433.159C273.069 398.641 264.94 368.732 254.727 342.835L255.529 340.201L254.133 341.288C254.133 341.288 254.133 341.288 254.133 341.243C256.135 297.389 264.719 260.723 277.03 230.114L278.185 230.372C277.958 229.899 277.731 229.412 277.503 228.945C299.017 176.241 331.634 141.678 360.582 119.754C394.69 93.9331 423.79 85.5703 423.79 85.5703C439.328 104.772 442.865 163.451 443.611 195.058Z" stroke="#CCDDE2" stroke-width="2.50759" stroke-miterlimit="10"/>
<path d="M445.676 421.923C441.145 421.014 436.706 419.928 432.361 418.664C414.536 413.453 393.831 404.56 386.731 385.863C384.955 381.033 384.395 375.839 385.101 370.742C385.807 365.643 387.758 360.797 390.78 356.631C393.983 352.189 398.485 348.85 403.666 347.075C414.94 343.43 427.415 349.109 435.778 357.509C444.141 365.91 449.522 376.724 456.072 386.603C450.148 373.338 444.134 359.689 443.32 345.186C442.688 333.88 445.758 321.62 453.552 313.124C460.727 305.305 477.504 299.184 487.382 304.913C493.901 308.703 496.503 316.763 497.621 324.216C500.691 344.611 496.75 365.335 492.827 385.586C495.461 374.759 498.291 363.832 503.66 354.067C509.029 344.302 517.259 335.674 527.801 332.055C535.184 329.528 543.952 329.8 550.135 334.581C555.902 339.003 558.479 346.538 559.275 353.776C560.601 365.916 557.746 378.227 552.832 389.401C534.496 431.107 483.643 429.503 445.676 421.923Z" fill="white"/>
<path d="M487.047 401.28C487.047 401.28 515.313 409.131 525.292 369.844L487.047 401.28Z" fill="white"/>
<path d="M474.469 334.223C466.611 352.035 474.469 405.477 474.469 405.477V334.223Z" fill="white"/>
<path d="M448.28 400.063C447.099 399.861 435.761 398.275 426.097 393.835C418.612 390.399 412.125 385.245 412.125 377.703" fill="white"/>
<path d="M428.369 377.715C428.369 377.715 417.321 390.594 426.101 393.847L428.369 377.715Z" fill="white"/>
<path d="M421.023 405.562C422.596 403.376 430.776 407.76 436.119 397.445L421.023 405.562Z" fill="white"/>
<path d="M470.977 357.801C468.185 355.704 460.871 357.801 459.797 341.031L470.977 357.801Z" fill="white"/>
<path d="M472.195 373.514C472.195 373.514 484.424 369.093 484.424 359.523L472.195 373.514Z" fill="white"/>
<path d="M498.484 401.503C498.484 401.503 504.864 385.036 507.485 377.703L498.484 401.503Z" fill="white"/>
<path d="M518.289 385.776C518.289 385.776 525.294 391.328 533.676 382.422L518.289 385.776Z" fill="white"/>
<path d="M518.285 377.714C518.285 377.714 513.763 375.749 515.86 364.449L518.285 377.714Z" fill="white"/>
<path d="M445.676 421.923C441.103 421.292 436.7 419.934 432.361 418.664C414.536 413.453 393.831 404.56 386.731 385.863C384.955 381.033 384.395 375.839 385.101 370.742C385.807 365.643 387.758 360.797 390.78 356.631C393.983 352.189 398.485 348.85 403.666 347.075C414.94 343.43 427.415 349.109 435.778 357.509C444.141 365.91 449.522 376.724 456.072 386.602C450.148 373.338 444.134 359.689 443.32 345.186C442.688 333.88 445.758 321.62 453.552 313.124C460.727 305.305 477.504 299.184 487.382 304.913C493.901 308.703 496.503 316.763 497.621 324.216C500.691 344.611 496.75 365.335 492.827 385.586C495.461 374.759 498.291 363.832 503.66 354.067C509.029 344.302 517.259 335.674 527.801 332.055C535.184 329.528 543.952 329.8 550.135 334.581C555.902 339.003 558.479 346.538 559.275 353.776C560.601 365.916 557.917 378.309 552.832 389.401C534.199 430.008 482.955 426.939 445.676 421.923Z" stroke="#CCDDE2" stroke-width="2.50759" stroke-miterlimit="10"/>
<path d="M487.047 401.28C487.047 401.28 515.313 409.131 525.292 369.844" stroke="#CCDDE2" stroke-width="2.50759" stroke-miterlimit="10"/>
<path d="M474.469 334.223C466.611 352.035 474.469 405.477 474.469 405.477" stroke="#CCDDE2" stroke-width="2.50759" stroke-miterlimit="10"/>
<path d="M448.28 400.063C447.099 399.861 435.761 398.275 426.097 393.835C418.612 390.399 412.125 385.245 412.125 377.703" stroke="#CCDDE2" stroke-width="2.50759" stroke-miterlimit="10"/>
<path d="M428.369 377.715C428.369 377.715 417.321 390.594 426.101 393.847" stroke="#CCDDE2" stroke-width="2.50759" stroke-miterlimit="10"/>
<path d="M421.023 405.562C422.596 403.376 430.776 407.76 436.119 397.445" stroke="#CCDDE2" stroke-width="2.50759" stroke-miterlimit="10"/>
<path d="M470.977 357.801C468.185 355.704 460.871 357.801 459.797 341.031" stroke="#CCDDE2" stroke-width="2.50759" stroke-miterlimit="10"/>
<path d="M472.195 373.514C472.195 373.514 484.424 369.093 484.424 359.523" stroke="#CCDDE2" stroke-width="2.50759" stroke-miterlimit="10"/>
<path d="M498.484 401.503C498.484 401.503 504.864 385.036 507.485 377.703" stroke="#CCDDE2" stroke-width="2.50759" stroke-miterlimit="10"/>
<path d="M518.289 385.776C518.289 385.776 525.294 391.328 533.676 382.422" stroke="#CCDDE2" stroke-width="2.50759" stroke-miterlimit="10"/>
<path d="M518.285 377.714C518.285 377.714 513.763 375.749 515.86 364.449" stroke="#CCDDE2" stroke-width="2.50759" stroke-miterlimit="10"/>
<path d="M520.219 279.445C525.866 284.311 530.907 289.84 535.233 295.912C543.184 306.782 547.683 319.793 548.143 333.254" stroke="#CCDDE2" stroke-width="2.50759" stroke-miterlimit="10"/>
<path d="M323.219 56.7692C334.588 49.9223 346.444 43.8396 359.051 39.5445C390.488 28.8067 425.537 31.188 450.443 54.7543C472.032 75.1624 482.239 105.481 484.323 134.536C484.323 134.959 484.393 135.408 484.412 135.856C485.366 150.826 484.582 167.356 484.475 183.898" stroke="#CCDDE2" stroke-width="2.50759" stroke-miterlimit="10"/>
<path d="M75.4086 182.979C78.2572 164.794 74.7769 147.689 72.882 128.974C68.0058 80.2117 83.5124 21.8676 139.684 14.5722C170.204 10.5929 194.977 21.9939 215.612 43.8611C220.249 48.7689 224.885 54.5357 229.793 60.1067" stroke="#CCDDE2" stroke-width="2.50759" stroke-miterlimit="10"/>
<path d="M53.497 344.023C53.497 344.023 10.9563 325.288 15.2135 290.087C16.401 280.152 21.0814 271.265 26.9935 263.098" stroke="#CCDDE2" stroke-width="2.50759" stroke-miterlimit="10"/>
<path d="M437.722 367.494C436.105 366.327 434.42 365.22 432.669 364.172C415.198 353.832 391.392 349.821 371.432 348.621C370.213 348.532 369.013 348.469 367.825 348.419C366.252 348.35 364.713 347.938 363.316 347.212C361.867 346.481 360.609 345.424 359.639 344.123C358.66 340.276 357.484 336.481 356.115 332.754L353.31 320.121C352.264 316.467 351.444 312.753 350.853 308.998C347.948 290.005 345.8 266.401 345.042 257.564C345.133 257.603 345.229 257.631 345.327 257.646L353.999 260.426C354.03 260.423 354.062 260.423 354.094 260.426L357.17 261.329C369.095 264.714 381.608 267.254 394.032 267.525C405.742 267.772 418.59 265.851 428.595 259.371C429.437 258.84 430.254 258.272 431.046 257.665C438.764 251.854 444.127 242.936 447.165 233.884C452.755 217.143 453.962 199.248 450.671 181.907C449.737 177.133 448.425 172.44 446.748 167.872C442.327 155.713 435.941 144.319 430.458 132.501C429.195 129.747 427.388 126.86 427.167 123.803C426.902 120.159 428.772 116.653 429.359 113.11C430.044 108.852 430.361 104.543 430.307 100.23C430.298 95.1155 429.319 90.0485 427.42 85.2986C425.784 81.3067 422.879 74.6114 417.718 74.8577C416.063 69.5646 413.297 63.4378 408.427 62.7493C407.163 62.5554 405.873 62.8687 404.839 63.6209C404.482 63.1087 404.096 62.6173 403.683 62.1492C401.649 59.8627 397.803 57.8036 394.714 58.9911C388.587 61.4165 391.392 69.8489 394.43 76.2473C392.866 75.9107 391.262 75.8045 389.667 75.9315C386.099 76.2473 381.968 77.6874 380.584 81.1235C379.833 83.0184 380.098 86.4356 382.018 87.5094C384.456 88.8421 387.45 87.9578 389.888 89.2085C392.611 90.6107 393.678 94.3689 393.28 97.2113C393.203 98.3255 392.759 99.3828 392.017 100.218C387.709 104.526 384.753 92.6382 383.117 90.6802C380.894 88.0084 377.635 88.4947 375.317 90.7496C370.737 95.1711 372.727 104.077 374.647 109.421C376.731 115.27 379.441 121.422 383.768 125.976C390.962 133.524 391.752 145.557 393.653 155.29C394.436 159.314 395.188 163.375 395.794 167.43C396.994 175.3 397.689 183.221 397.057 191.167C396.898 193.348 396.289 195.473 395.269 197.407C394.249 199.342 392.84 201.044 391.13 202.409C389.421 203.773 387.448 204.769 385.336 205.334C383.223 205.9 381.016 206.022 378.854 205.694C373.706 204.911 367.68 203.976 361.263 202.972C361.263 202.972 361.313 202.922 361.345 202.909C352.597 199.934 344.859 199.568 337.16 199.163C315.438 195.803 295.933 192.645 295.933 192.645C295.489 192.563 295.087 192.329 294.797 191.983C294.506 191.637 294.345 191.202 294.341 190.75L294.076 166.634C295.56 168.453 298.781 168.706 300.752 167.651C301.535 167.252 302.18 166.625 302.6 165.853C303.02 165.08 303.198 164.199 303.108 163.324C304.386 163.314 305.642 162.991 306.765 162.383C307.099 162.197 307.418 161.986 307.719 161.752C308.342 161.193 308.845 160.512 309.196 159.752C309.547 158.991 309.738 158.167 309.759 157.33C309.786 156.868 309.763 156.404 309.69 155.947C309.69 155.776 309.639 155.612 309.608 155.429C309.538 155.075 309.456 154.728 309.355 154.355C309.304 154.14 309.241 153.926 309.172 153.724C309.008 153.092 308.824 152.46 308.685 151.829C308.759 151.838 308.833 151.838 308.907 151.829C309.53 151.793 310.149 151.705 310.757 151.563C311.335 151.426 311.9 151.235 312.444 150.995C312.749 150.86 313.046 150.708 313.334 150.54C313.384 150.523 313.429 150.495 313.467 150.458C313.956 150.159 314.418 149.818 314.85 149.441C314.997 149.321 315.136 149.192 315.267 149.056C315.513 148.824 315.748 148.58 315.968 148.323C316.251 147.993 316.514 147.647 316.758 147.287C316.877 147.134 316.983 146.972 317.074 146.801C317.95 145.395 318.59 143.854 318.968 142.24C319 142.089 319.038 141.937 319.07 141.792C320.333 135.779 318.438 128.913 313.157 126.671C312.103 126.222 308.363 125.786 308.363 124.201C308.365 124.088 308.382 123.975 308.414 123.866C308.408 123.844 308.408 123.819 308.414 123.797C308.514 123.561 308.657 123.347 308.837 123.165C308.919 123.064 309.033 122.963 309.134 122.862C309.355 122.666 309.601 122.483 309.835 122.293C310.075 122.135 310.305 121.963 310.523 121.776C310.616 121.698 310.705 121.616 310.789 121.529C310.953 121.346 311.124 121.163 311.275 120.98C311.425 120.799 311.565 120.609 311.692 120.411C311.825 120.209 311.957 120.007 312.077 119.78C312.209 119.581 312.321 119.369 312.412 119.148C312.602 118.773 312.759 118.382 312.879 117.979C313.092 117.317 313.226 116.633 313.277 115.939C313.277 115.693 313.277 115.44 313.277 115.188C313.277 109.642 308.755 103.9 303.039 103.294C302.115 103.193 301.179 103.303 300.304 103.616C299.874 103.765 299.452 103.938 299.04 104.134L298.409 104.431C297.979 104.633 297.543 104.848 297.095 105.062C296.717 105.242 296.307 105.345 295.889 105.366C295.793 105.363 295.698 105.35 295.604 105.328L295.421 105.277C295.288 105.248 295.167 105.18 295.074 105.081C294.963 105.001 294.87 104.898 294.802 104.778C294.745 104.663 294.705 104.539 294.682 104.412C294.678 104.404 294.675 104.395 294.675 104.387C294.675 104.378 294.678 104.369 294.682 104.361C294.65 104.214 294.635 104.064 294.638 103.913C294.637 103.601 294.682 103.29 294.771 102.991C294.949 102.338 295.038 101.665 295.036 100.988C295.035 100.743 295.018 100.499 294.985 100.256C294.953 99.9185 294.903 99.5831 294.834 99.2514C294.215 96.8083 292.746 94.6651 290.69 93.2067C284.898 89.1137 274.04 89.0948 271.046 96.6807C270.983 96.7944 270.952 96.9144 270.901 97.0281C270.516 96.5796 270.13 96.1122 269.745 95.6448C269.479 95.4736 269.2 95.3214 268.911 95.19C264.901 93.4404 259.159 94.1921 256.235 97.6155C253.809 100.458 253.013 104.848 255.167 108.069C253.959 106.509 252.322 105.337 250.455 104.696C250.678 105.321 250.975 105.917 251.339 106.471C251.168 106.239 250.985 106.015 250.79 105.801C250.638 105.631 250.487 105.479 250.335 105.334C250.183 105.189 249.969 104.98 249.786 104.829C249.602 104.677 249.4 104.513 249.204 104.361C245.446 101.607 239.913 101.323 236.407 104.766C233.666 107.456 233.098 111.177 234.07 114.783C235.043 118.39 237.374 120.898 239.124 124.005C233.192 125.496 228.449 132.071 230.319 138.236C230.709 139.511 231.393 140.677 232.316 141.64C233.238 142.603 234.374 143.337 235.631 143.782C236.081 143.895 236.539 143.973 237.001 144.015C237.156 144.031 237.305 144.079 237.44 144.155C237.576 144.231 237.694 144.334 237.788 144.458C237.881 144.582 237.948 144.724 237.985 144.875C238.021 145.026 238.026 145.183 237.999 145.335C237.905 145.75 237.856 146.174 237.854 146.599C237.858 147.616 238.124 148.616 238.626 149.501C239.128 150.386 239.85 151.127 240.722 151.652C240.851 151.724 240.964 151.822 241.054 151.94C241.145 152.057 241.21 152.193 241.246 152.336C241.282 152.48 241.288 152.63 241.264 152.776C241.241 152.922 241.187 153.062 241.107 153.187C240.229 154.435 239.713 155.903 239.616 157.427C239.519 158.95 239.845 160.471 240.557 161.821C242.509 165.731 247.291 169.123 251.8 167.784C253.251 167.344 254.507 166.418 255.357 165.163C255.447 165.068 255.526 164.962 255.59 164.847C255.607 164.809 255.63 164.775 255.66 164.746C256.309 163.776 256.74 162.677 256.923 161.524C258.034 163.286 259.278 164.96 260.643 166.533L261.464 167.449L258.969 182.836L258.603 185.609C258.468 186.568 257.99 187.447 257.26 188.082C256.529 188.718 255.593 189.069 254.624 189.07C254.074 189.07 253.506 189.07 252.956 189.07C251.838 189.07 250.733 189.101 249.634 189.133C246.293 189.215 242.964 189.367 239.641 189.569C237.115 189.733 234.645 189.916 232.163 190.137C230.9 190.238 229.687 190.352 228.436 190.485C227.186 190.617 225.948 190.737 224.71 190.87C222.29 191.142 219.852 191.42 217.427 191.742C214.502 192.127 211.597 192.525 208.672 192.942C204.099 193.611 199.539 194.344 194.96 195.134C190.5 195.904 186.06 196.706 181.601 197.521C175.335 198.677 169.006 199.643 162.652 200.679C160.983 200.949 159.276 200.859 157.645 200.417C156.014 199.974 154.496 199.188 153.193 198.112C151.89 197.036 150.831 195.694 150.088 194.176C149.344 192.658 148.933 191 148.882 189.31C148.168 168.466 159.973 130.448 159.973 130.448C160.245 127.492 163.763 125.395 165.822 123.715C171.715 119.059 175.196 110.722 177.23 103.704C178.67 98.6956 180.034 91.5455 175.796 87.4399C173.471 85.1849 170.212 84.6986 167.995 87.3704C166.359 89.3411 163.403 101.216 159.089 96.9081C158.348 96.0731 157.903 95.0157 157.826 93.9015C157.453 91.0655 158.457 87.3072 161.211 85.8987C163.65 84.6354 166.643 85.5323 169.082 84.1996C170.976 83.1258 171.267 79.6897 170.515 77.8138C169.132 74.3777 165.008 72.9376 161.432 72.6217C159.838 72.4948 158.234 72.6009 156.67 72.9376C159.708 66.5391 162.519 58.1068 156.386 55.6876C153.297 54.4686 149.438 56.5214 147.417 58.8079C147.006 59.2766 146.622 59.768 146.267 60.2796C145.229 59.5298 143.939 59.2166 142.673 59.4079C137.778 60.0964 135.043 66.2233 133.388 71.5227C128.278 71.27 125.385 77.839 123.73 81.8247C121.855 86.4154 120.859 91.3181 120.793 96.2764C120.635 101.551 121.008 106.829 121.905 112.029C122.322 114.272 123.073 116.407 123.61 118.598C124.198 120.986 123.56 123.355 122.694 125.597C119.302 134.181 114.521 142.215 110.933 150.736C107.043 159.754 103.925 169.084 101.61 178.629C97.151 197.471 96.2352 217.449 101.446 236.24C111.3 271.751 161.224 260.091 189.824 250.136C201.781 245.98 210.037 242.102 210.037 242.102C210.037 242.102 210.1 244.856 210.1 249.517V250.149C210.068 256.465 209.519 306.857 201.03 343.858L200.745 344.345C200.815 344.294 200.948 344.294 201.03 344.742C200.563 345.753 199.817 346.608 198.878 347.206C197.94 347.804 196.849 348.12 195.737 348.115C175.411 348.033 89.8177 350.92 106.044 406.226C109.083 416.616 117.016 423.28 128.152 427.221C136.995 430.38 147.865 431.75 159.904 431.851H159.986C136.451 436.311 130.975 471.322 157.232 476.615C167.338 478.649 175.341 472.105 184.424 469.313C189.615 467.779 195.02 467.092 200.43 467.28C203.96 467.364 207.481 467.694 210.965 468.265C249.123 474.512 287.843 476.617 326.453 474.543C352.559 473.11 379.17 469.831 403.942 461.096C422.613 454.502 443.104 442.962 452.3 425.093C455.559 418.804 457.243 411.818 457.208 404.735C457.183 387.902 449.401 375.926 437.722 367.494Z" fill="white"/>
<path d="M43.8444 426.274L42.8906 425.371" stroke="#CCDDE2" stroke-width="2.50759" stroke-miterlimit="10"/>
<path d="M356.131 331.833L353.32 319.168C352.275 315.514 351.457 311.8 350.869 308.045C347.964 289.052 345.816 265.454 345.052 256.618L354.109 259.504L350.951 252.474C350.951 252.474 340.548 217.463 361.361 202.044C346.309 196.922 334.251 199.556 320.165 196.315C314.74 195.052 309.011 193.947 302.682 192.911L298.102 192.109C297.919 204.552 289.259 207.375 282.135 208.727C264.594 212.087 252.448 199.29 252.953 188.148C233.48 188.37 214.234 190.94 194.963 194.212C197.451 201.514 202.694 223.394 187.945 249.265L189.84 249.202C201.797 245.04 210.053 241.168 210.053 241.168C210.053 241.168 210.122 243.922 210.122 248.583V249.215C210.09 255.493 209.541 305.923 201.052 342.918C200.42 344.124 200.913 342.64 201.052 343.979C200.536 345.007 200.183 346.108 200.003 347.244L200.414 345.609C198.127 348.887 203.85 352.86 212.118 354.862C233.732 360.142 352.878 369.39 359.605 347.244C360.001 345.924 360.014 344.518 359.643 343.189C358.665 339.347 357.493 335.556 356.131 331.833Z" fill="#353642"/>
<path d="M200.424 466.322C195.02 466.141 189.622 466.83 184.437 468.362C175.348 471.148 167.333 477.698 157.239 475.658C130.982 470.365 136.465 435.353 159.999 430.894C162.254 430.843 164.509 430.831 166.745 430.831H166.897C177.736 430.831 188.297 431.115 196.963 428.121C196.148 428.873 175.032 447.601 200.424 466.322Z" fill="#58419F"/>
<path d="M298.086 192.085V192.117C297.903 204.56 289.243 207.383 282.119 208.735C264.578 212.095 252.432 199.298 252.937 188.156" stroke="black" stroke-width="2.50759" stroke-miterlimit="10"/>
<path d="M160.023 430.898C136.488 435.357 131.005 470.369 157.263 475.662C167.369 477.702 175.371 471.152 184.461 468.366C189.65 466.833 195.052 466.144 200.46 466.326C203.983 466.423 207.495 466.763 210.97 467.343C249.126 473.603 287.847 475.721 326.458 473.659C352.564 472.219 379.168 468.947 403.941 460.212C422.618 453.611 443.102 442.071 452.299 424.209C455.559 417.918 457.244 410.931 457.207 403.845C457.207 386.993 449.406 375.017 437.752 366.578C436.129 365.41 434.443 364.311 432.699 363.256C415.228 352.916 391.428 348.905 371.469 347.705C370.25 347.623 369.043 347.554 367.862 347.503C366.289 347.439 364.749 347.029 363.352 346.303C361.902 345.576 360.642 344.518 359.676 343.214C358.736 341.979 358.074 340.555 357.737 339.039L356.152 331.839L353.341 319.174L350.877 308.045C347.972 289.052 345.824 265.454 345.06 256.617" stroke="black" stroke-width="2.50759" stroke-miterlimit="10"/>
<path d="M379.719 413.912C371.931 431.718 352.672 425.623 331.513 412.807C318.381 404.855 307.176 403.724 300.562 403.964C309.885 403.13 318.034 400.256 320.326 389.714C322.177 381.149 317.351 373.292 309.001 370.765C329.075 369.881 349.672 371.397 366.006 384.03C366.019 384.03 387.52 396.088 379.719 413.912Z" fill="#58419F"/>
<path d="M308.872 150.831C308.801 150.84 308.729 150.84 308.657 150.831C308.853 151.816 309.226 152.871 309.472 153.919C309.67 154.712 309.755 155.528 309.725 156.345C309.46 160.166 306.75 162.238 303.074 162.339C303.167 163.216 302.992 164.101 302.573 164.876C302.153 165.652 301.509 166.282 300.724 166.685C298.753 167.721 295.526 167.487 294.041 165.661C292.285 163.545 293.157 160.918 294.225 158.6C294.61 157.785 294.995 157.014 295.311 156.313C295.696 155.442 296.031 154.576 296.328 153.692C297.379 150.419 298.194 147.076 298.766 143.687C299.465 140.263 299.927 136.796 300.149 133.309C299.916 132.463 300.067 131.237 299.732 130.353C299.245 128.988 298.366 127.797 297.206 126.93C294.806 125.161 291.61 125.275 289.058 123.708C286.747 122.269 284.924 120.167 283.828 117.676C283.613 117.158 283.411 116.489 283.108 115.908C282.973 115.592 282.767 115.311 282.508 115.086C281.358 114.12 280.689 115.825 279.981 116.489C279.256 117.158 278.396 117.666 277.46 117.977C276.523 118.289 275.531 118.397 274.549 118.295C273.807 118.197 273.084 117.984 272.408 117.663C271.911 117.393 271.447 117.067 271.025 116.691C270.523 116.203 269.94 115.807 269.3 115.522C268.1 115.074 268.037 117.057 267.866 117.746C267.752 118.341 267.505 118.902 267.143 119.388C266.781 119.874 266.313 120.271 265.776 120.55C265.126 120.869 264.415 121.04 263.691 121.049C262.849 121.083 262.006 120.969 261.203 120.714C260.426 120.484 259.688 120.141 259.011 119.697C258.889 119.615 258.748 119.569 258.601 119.564C258.455 119.559 258.31 119.595 258.183 119.668C258.056 119.741 257.952 119.848 257.883 119.977C257.813 120.106 257.782 120.252 257.792 120.398C258.026 126.93 251.918 129.203 249.41 129.873C248.568 140.652 251.201 151.417 256.927 160.589C256.715 161.916 256.174 163.17 255.354 164.234C251.229 165.27 246.467 164.145 244.679 160.589C242.784 156.8 243.043 151.551 245.987 148.847C243.946 148.531 243.378 145.519 244.547 143.75C244.648 143.579 244.692 143.478 244.629 143.314C244.376 142.626 241.376 142.051 240.555 141.798C239.383 141.38 238.325 140.694 237.465 139.795C236.606 138.895 235.968 137.808 235.603 136.619C233.866 130.89 238.274 124.776 243.782 123.392C242.146 120.5 239.992 118.162 239.077 114.821C238.161 111.48 238.679 108.006 241.23 105.479C242.268 104.492 243.537 103.78 244.92 103.407C246.303 103.034 247.757 103.013 249.151 103.344C249.963 103.935 250.683 104.644 251.286 105.448C250.915 104.899 250.618 104.304 250.402 103.679C252.271 104.313 253.911 105.487 255.114 107.052C252.96 103.831 253.762 99.4345 256.181 96.5922C259.106 93.1687 264.854 92.4171 268.858 94.173C269.148 94.3031 269.429 94.4535 269.698 94.6215C270.077 95.0952 270.462 95.5626 270.848 96.0111C270.89 95.8898 270.941 95.7717 270.999 95.6574C271.812 96.493 272.582 97.3697 273.305 98.285C275.907 90.8822 286.247 90.8632 291.711 94.7225C292.997 95.6403 294.051 96.8474 294.787 98.2471C295.063 99.4769 295.04 100.755 294.717 101.974C294.383 103.142 294.648 104.027 295.399 104.279C295.965 104.417 296.561 104.34 297.073 104.064C299.076 103.161 300.73 102.056 303.055 102.308C310.634 103.111 316.161 112.964 311.67 119.394C311.404 119.793 311.101 120.168 310.767 120.512C310.135 121.144 308.714 121.883 308.398 122.786C308.39 122.808 308.39 122.833 308.398 122.856C307.83 124.75 312.024 125.174 313.142 125.66C323.046 129.835 320.955 150.199 308.872 150.831Z" fill="#58419F"/>
<path d="M136.688 99.4743C134.332 94.4591 136.056 87.429 138.741 82.1169C140.794 77.9924 139.158 71.3792 133.915 70.6401C128.471 69.9074 125.426 76.7733 123.727 80.9168C121.848 85.5088 120.849 90.4135 120.784 95.375C120.644 100.651 121.031 105.928 121.939 111.128C122.356 113.364 123.108 115.505 123.639 117.691C124.226 120.078 123.588 122.453 122.723 124.689C119.331 133.273 114.556 141.307 110.962 149.828C107.077 158.847 103.961 168.178 101.645 177.721C97.1857 196.563 96.2635 216.541 101.474 235.333C111.328 270.843 161.259 259.183 189.853 249.228C201.81 245.066 210.065 241.194 210.065 241.194C210.065 241.194 210.135 243.948 210.135 248.609C210.135 248.824 210.135 249.045 210.135 249.241C210.172 267.982 209.421 315.07 201.349 343.045C200.999 344.252 200.265 345.311 199.258 346.062C198.252 346.813 197.028 347.216 195.771 347.208C175.445 347.126 89.8587 350.012 106.079 405.286C111.562 423.958 132.791 430.672 159.913 430.906H160.033C162.238 430.906 164.493 430.906 166.779 430.842H166.931C177.006 430.492 187.054 429.583 197.028 428.12C232.362 423.143 269.957 412.519 294.243 404.863C295.643 404.494 297.075 404.255 298.519 404.149C299.119 404.08 299.782 404.029 300.528 403.998H300.591C307.192 403.733 318.397 404.863 331.541 412.841C352.701 425.657 371.966 431.752 379.747 413.946C387.529 396.14 366.022 384.032 366.022 384.032C349.688 371.399 329.09 369.902 309.017 370.768C302.821 371.039 296.656 371.557 290.7 372.031C266.862 373.93 243.019 375.824 219.173 377.716L187.933 380.242" stroke="black" stroke-width="2.50759" stroke-miterlimit="10"/>
<path d="M145.172 96.126C145.172 96.126 141.768 89.2469 145.981 78.4901C147.718 74.0687 149.72 68.7194 148.899 63.8747C148.642 62.0809 147.689 60.4608 146.246 59.3642C145.209 58.6139 143.917 58.3025 142.652 58.4989C137.763 59.1811 135.022 65.3149 133.367 70.608" stroke="black" stroke-width="2.50759" stroke-miterlimit="10"/>
<path d="M152.289 92.1377C152.289 92.1377 149.055 86.6614 153.464 78.2417C154.203 76.8395 155.453 74.5972 156.622 72.0454C159.666 65.6469 162.471 57.2146 156.338 54.7891C153.249 53.5701 149.39 55.6229 147.368 57.9157C146.958 58.3819 146.574 58.8714 146.219 59.3811" stroke="black" stroke-width="2.50759" stroke-miterlimit="10"/>
<path d="M156.643 71.9984C158.207 71.6592 159.812 71.5525 161.406 71.6826C164.981 71.9984 169.106 73.4322 170.495 76.8746C171.247 78.7695 170.975 82.1867 169.055 83.2542C166.617 84.5932 163.629 83.7089 161.191 84.9596C158.469 86.3618 157.401 90.12 157.799 92.9624C157.876 94.0766 158.32 95.1339 159.063 95.969C163.37 100.277 166.326 88.3893 167.962 86.4313C170.186 83.7595 173.439 84.2395 175.763 86.4944C180.008 90.6001 178.637 97.7439 177.19 102.759C175.163 109.776 171.683 118.114 165.821 122.763C163.724 124.418 160.237 126.553 159.972 129.509C159.972 129.509 148.167 167.502 148.874 188.364C148.925 190.053 149.336 191.711 150.079 193.229C150.822 194.746 151.88 196.088 153.183 197.164C154.486 198.24 156.003 199.026 157.633 199.469C159.263 199.912 160.969 200.002 162.638 199.734C168.954 198.704 175.308 197.738 181.587 196.576C186.046 195.761 190.486 194.959 194.946 194.188C214.773 190.815 234.568 188.194 254.61 188.105C255.578 188.107 256.515 187.759 257.246 187.123C257.978 186.489 258.455 185.61 258.589 184.65L258.968 181.903L261.463 166.485" stroke="black" stroke-width="2.50759" stroke-miterlimit="10"/>
<path d="M414.41 102.814C416.766 97.7989 415.042 90.7688 412.357 85.4567C410.285 81.3322 411.94 74.719 417.183 73.9799C417.366 73.9799 417.549 73.9483 417.72 73.9483C422.88 73.6957 425.786 80.3973 427.422 84.3893C429.323 89.1385 430.305 94.2055 430.315 99.3211C430.363 103.634 430.044 107.942 429.361 112.2C428.78 115.737 426.904 119.249 427.175 122.887C427.39 125.945 429.197 128.837 430.466 131.591C435.942 143.384 442.353 154.772 446.75 166.963C448.426 171.528 449.737 176.219 450.672 180.991C453.973 198.327 452.777 216.22 447.198 232.962C444.154 242.02 438.797 250.939 431.079 256.75C430.278 257.352 429.46 257.921 428.622 258.455C418.617 264.936 405.769 266.856 394.065 266.603C381.634 266.338 369.128 263.799 357.197 260.407C355.112 259.809 353.036 259.178 350.969 258.512C348.796 257.823 346.642 257.122 344.488 256.39C342.233 255.606 339.978 254.817 337.742 253.983" stroke="black" stroke-width="2.50759" stroke-miterlimit="10"/>
<path d="M417.722 73.9511C416.067 68.658 413.3 62.5248 408.437 61.8427C407.172 61.6462 405.88 61.9576 404.843 62.708C403.4 63.8045 402.447 65.4246 402.19 67.2179C401.369 72.0625 403.371 77.4061 405.108 81.8339C409.321 92.5717 405.91 99.4754 405.91 99.4754" stroke="black" stroke-width="2.50759" stroke-miterlimit="10"/>
<path d="M404.836 62.7054C404.483 62.1874 404.085 61.7074 403.687 61.2337C401.647 58.9472 397.806 56.8943 394.711 58.1134C388.584 60.5326 391.389 68.9712 394.433 75.3697C395.633 77.8962 396.884 80.1638 397.591 81.566C402.013 89.9983 398.76 95.4619 398.76 95.4619" stroke="black" stroke-width="2.50759" stroke-miterlimit="10"/>
<path d="M394.443 75.3724C392.88 75.0338 391.276 74.9252 389.681 75.0503C386.106 75.3724 381.981 76.8062 380.592 80.2486C379.84 82.1435 380.112 85.5607 382.032 86.6281C384.47 87.9672 387.457 87.0766 389.896 88.3335C392.618 89.7358 393.685 93.494 393.287 96.3364C393.21 97.4506 392.766 98.5079 392.024 99.3429C387.716 103.651 384.76 91.7633 383.124 89.8053C380.901 87.1271 377.648 87.6135 375.324 89.8684C370.744 94.2899 372.734 103.196 374.654 108.546C376.745 114.388 379.448 120.547 383.775 125.095C390.976 132.674 391.759 144.675 393.666 154.409C394.45 158.439 395.201 162.494 395.801 166.555C397.001 174.419 397.696 182.346 397.065 190.292C396.904 192.473 396.294 194.598 395.273 196.533C394.253 198.467 392.843 200.17 391.134 201.534C389.424 202.898 387.451 203.894 385.337 204.46C383.224 205.025 381.017 205.147 378.855 204.82C350.608 200.493 295.94 191.707 295.94 191.707C295.493 191.63 295.087 191.397 294.794 191.051C294.5 190.704 294.338 190.266 294.336 189.812L294.07 165.69" stroke="black" stroke-width="2.50759" stroke-miterlimit="10"/>
<path d="M249.381 129.855C248.225 142.28 252.539 156.327 260.624 165.587C275.707 182.837 288.416 165.587 288.416 165.587" stroke="black" stroke-width="2.50759" stroke-miterlimit="10"/>
<path d="M300.31 133.709C299.868 132.888 300.127 131.404 299.748 130.362C299.258 128.996 298.38 127.804 297.221 126.932C294.808 125.17 291.619 125.277 289.073 123.723C286.761 122.277 284.935 120.172 283.83 117.679C283.477 116.883 283.199 115.67 282.523 115.095C281.367 114.129 280.698 115.828 279.996 116.497C278.996 117.43 277.738 118.04 276.387 118.25C275.036 118.459 273.652 118.258 272.417 117.672C271.28 117.11 270.49 115.979 269.303 115.531C268.115 115.083 268.04 117.06 267.863 117.754C267.75 118.349 267.504 118.91 267.145 119.397C266.785 119.883 266.32 120.282 265.785 120.565C263.694 121.595 260.839 120.919 259.02 119.7C258.898 119.615 258.755 119.568 258.607 119.561C258.458 119.556 258.312 119.592 258.184 119.666C258.055 119.74 257.951 119.849 257.882 119.98C257.813 120.111 257.783 120.259 257.795 120.407C258.079 128.618 248.352 130.09 248.352 130.09" stroke="black" stroke-width="2.50759" stroke-miterlimit="10"/>
<path d="M263.11 147.926C267.973 147.926 271.915 143.984 271.915 139.121C271.915 134.258 267.973 130.316 263.11 130.316C258.247 130.316 254.305 134.258 254.305 139.121C254.305 143.984 258.247 147.926 263.11 147.926Z" stroke="black" stroke-width="2.50759" stroke-miterlimit="10"/>
<path d="M285.922 147.141C290.785 147.141 294.727 143.199 294.727 138.336C294.727 133.473 290.785 129.531 285.922 129.531C281.059 129.531 277.117 133.473 277.117 138.336C277.117 143.199 281.059 147.141 285.922 147.141Z" stroke="black" stroke-width="2.50759" stroke-miterlimit="10"/>
<path d="M259.43 140.008C259.43 140.008 262.979 144.082 266.63 140.008" stroke="black" stroke-width="2.50759" stroke-miterlimit="10"/>
<path d="M282.336 140.008C282.336 140.008 285.886 144.082 289.543 140.008" stroke="black" stroke-width="2.50759" stroke-miterlimit="10"/>
<path d="M275.578 159.425C277.291 159.425 278.679 158.037 278.679 156.324C278.679 154.611 277.291 153.223 275.578 153.223C273.865 153.223 272.477 154.611 272.477 156.324C272.477 158.037 273.865 159.425 275.578 159.425Z" stroke="black" stroke-width="2.50759" stroke-miterlimit="10"/>
<path d="M271.914 139.119C271.914 139.119 273.91 135.866 277.125 138.336" stroke="black" stroke-width="2.50759" stroke-miterlimit="10"/>
<path d="M267.864 126.05C267.864 126.05 258.724 119.065 251.062 125.652" stroke="black" stroke-width="2.50759" stroke-miterlimit="10"/>
<path d="M294.608 122.388C294.608 122.388 283.75 118.598 278.508 127.22" stroke="black" stroke-width="2.50759" stroke-miterlimit="10"/>
<path d="M256.626 160.282C256.606 161.746 256.124 163.166 255.251 164.342C254.378 165.518 253.158 166.389 251.763 166.832C247.253 168.165 242.478 164.779 240.52 160.87C239.806 159.519 239.48 157.996 239.579 156.471C239.676 154.946 240.194 153.478 241.076 152.229C241.154 152.104 241.207 151.964 241.23 151.818C241.252 151.672 241.245 151.523 241.209 151.381C241.172 151.237 241.106 151.103 241.016 150.986C240.926 150.87 240.813 150.772 240.684 150.7C239.807 150.173 239.082 149.428 238.58 148.536C238.077 147.645 237.814 146.639 237.816 145.616C237.819 145.191 237.865 144.767 237.955 144.352C237.984 144.199 237.981 144.041 237.945 143.889C237.91 143.737 237.843 143.594 237.749 143.469C237.655 143.345 237.536 143.241 237.4 143.164C237.264 143.088 237.113 143.041 236.957 143.026C236.497 142.984 236.041 142.908 235.593 142.799C234.337 142.353 233.202 141.619 232.279 140.656C231.357 139.693 230.673 138.527 230.281 137.253C228.386 131.088 233.155 124.506 239.086 123.022C237.317 119.914 234.974 117.407 234.033 113.8C233.092 110.194 233.635 106.467 236.37 103.776C240.633 99.6011 247.866 100.902 251.302 105.482C248.984 102.008 249.849 97.2704 252.458 94.2259C255.616 90.5498 261.774 89.7476 266.088 91.6172C268.141 92.5205 269.461 94.3901 270.863 96.0387C273.668 88.1053 284.759 88.0548 290.659 92.211C293.729 94.4027 295.712 98.3757 294.733 102.001C294.215 103.839 295.169 104.938 297.089 104.092C299.009 103.246 300.746 102.083 303.07 102.336C311.117 103.189 316.834 114.211 310.783 120.54C310.151 121.209 308.73 121.91 308.414 122.814C307.726 124.709 312.002 125.201 313.139 125.688C323.131 129.882 320.939 150.46 308.717 150.877C309.084 152.627 309.917 154.566 309.785 156.372C309.519 160.194 306.81 162.266 303.134 162.386C303.224 163.26 303.048 164.141 302.628 164.913C302.209 165.685 301.567 166.312 300.784 166.712C298.813 167.761 295.586 167.514 294.101 165.689C291.726 162.821 294.164 159.063 295.365 156.322C297.133 152.311 298.005 147.984 298.807 143.689C299.542 140.131 300.014 136.523 300.222 132.895V132.743" stroke="black" stroke-width="2.50759" stroke-miterlimit="10"/>
<path d="M0 426.273H128.367" stroke="black" stroke-width="2.50759" stroke-miterlimit="10"/>
<path d="M451.375 426.273H568.467" stroke="black" stroke-width="2.50759" stroke-miterlimit="10"/>
</svg>
